<svg xmlns="http://www.w3.org/2000/svg" viewBox="0 0 623.5 203.338" xml:space="preserve"><path d="M526.958 79.241c-6.797 3.528-13.154 9.508-17.88 18.275a7 7 0 0 0 6.15 10.337 6.998 6.998 0 0 0 6.16-3.664c3.593-6.585 7.73-10.255 12.056-12.54 2.944-1.54 6.063-2.408 9.2-2.812-9.663 10.814-14.495 19.832-18.957 35.306-2.195 11.064 3.8 16.221 10.362 19.32l1.97 18.755-29.025 4.505c-5.594.868-9.426 6.107-8.556 11.7.785 5.062 5.147 8.68 10.114 8.68.523 0 1.053-.04 1.587-.123l38.666-6a10.239 10.239 0 0 0 8.623-11.2l-1.712-16.293 12.79 7.5 13.012 35.538c1.54 4.204 5.514 6.812 9.746 6.813 1.184 0 2.39-.205 3.566-.636 5.38-1.97 8.147-7.93 6.177-13.312l-14.296-39.04a10.435 10.435 0 0 0-4.495-5.382l-26.583-15.585c2.89-6.33 6.829-12.432 10.681-17.916a46.016 46.016 0 0 1-2.082-1.843c-6.024-5.647-9.08-11.127-10.114-13.22l-.009-.019-.035-.073c-2.169-4.585-.205-10.08 4.38-12.25a9.105 9.105 0 0 1 3.93-.887 9.25 9.25 0 0 1 8.322 5.263c.026.051.1.188.203.378.153.276.512.893 1.068 1.718a33.04 33.04 0 0 0 4.702 5.535c2.105-5.658 1.257-11.96-3.456-15.196-1.308-.898-2.843-1.636-4.53-2.17-3.807-1.483-11.854-4.116-21.629-4.156-6.258 0-13.311 1.144-20.106 4.694zM580.715 79.265c10.668 4.426 22.9-.636 27.325-11.3 4.426-10.667-.632-22.902-11.3-27.328-10.666-4.425-22.9.634-27.326 11.302-4.426 10.664.634 22.9 11.3 27.326zm4.147-8.946c13.89.933 18.014-1.985 18.014-1.985-7.457 17.334-27.707 1.335-18.014 1.985z"/><path d="M570.15 91.762a26.907 26.907 0 0 1-1.172-1.894 20.234 20.234 0 0 1-.261-.486h.002a7 7 0 0 0-12.656 5.99c.252.504 3.101 6.485 9.68 12.652 6.498 6.133 17.12 12.416 31.662 12.417h.12c3.926 0 8.112-.447 12.54-1.419a6.999 6.999 0 1 0-2.995-13.674c-3.513.768-6.678 1.091-9.546 1.094-10.561-.035-17.467-4.267-22.227-8.65a35.364 35.364 0 0 1-5.147-6.03zM276.957 51.253c-2.03 11.366 5.544 22.228 16.913 24.256 11.37 2.029 22.228-5.545 24.256-16.912 2.028-11.369-5.542-22.23-16.912-24.257-11.368-2.03-22.228 5.543-24.257 16.913zM300.167 151.706a10.412 10.412 0 0 0-4.889-6.738l-24.45-14.334c.4-4.769 1.523-9.65 3.016-14.424-.183-.137-.377-.26-.555-.403-3.604-2.85-6.47-6.725-8.503-11.517-3.306-7.937-3.401-15.363-3.433-17.8 0-.575.013-.916.017-1.014a9.175 9.175 0 0 1 9.582-8.79c5.069.216 9.018 4.514 8.8 9.581v.194c-.007 1.405.183 4.554.946 7.525.229.927.516 1.807.841 2.632.605-1.38 1.188-2.712 1.73-3.977 4.062-7.455 2.59-17.417-4.601-20.329-1.426-.577-3.03-.956-4.732-1.124a63.868 63.868 0 0 0-9.698-.735c-6.796.015-15.732 1.033-24.346 5.64-8.618 4.553-16.584 13.12-20.288 26.265a7 7 0 1 0 13.455 3.87c2.902-9.83 7.82-14.682 13.467-17.806a28.483 28.483 0 0 1 3.992-1.758c-7.112 12.64-9.893 22.486-10.922 38.558.087 4.244 1.132 7.415 2.774 9.815a10.323 10.323 0 0 0 4.58 5.652v-.002l.014.009 2.159 16.01-28.212 6.018c-5.537 1.181-9.066 6.628-7.887 12.165 1.029 4.815 5.283 8.114 10.015 8.114.71 0 1.429-.074 2.15-.228l37.497-8c5.235-1.117 8.736-6.094 8.021-11.394l-1.283-9.516 11.436 6.706 7.553 34.599c1.058 4.853 5.355 8.167 10.129 8.167.732 0 1.475-.078 2.22-.24 5.6-1.223 9.146-6.753 7.925-12.35l-8.52-39.041z"/><path d="m277.553 86.46.002-.278v-.008a7 7 0 0 0-13.986-.595c-.005.09-.015.395-.015.882.03 2.437.154 9.517 3.259 16.97 1.572 3.707 3.988 7.606 7.851 10.659 3.802 3.04 9.024 4.958 14.925 4.958l.161-.001c4.413-.004 9.2-.952 14.485-2.895a6.999 6.999 0 1 0-4.828-13.138c-4.098 1.506-7.286 2.035-9.657 2.03-3.225-.035-4.938-.825-6.423-1.95-2.185-1.658-3.878-4.983-4.762-8.561-.905-3.526-1.02-6.997-1.012-8.072zM65.87 65.51c11.37 2.028 22.228-5.546 24.256-16.913 2.028-11.369-5.542-22.23-16.912-24.257-11.368-2.03-22.228 5.543-24.257 16.913-2.03 11.366 5.544 22.228 16.913 24.257zM69.906 190.108c-1.575 5.51 1.616 11.254 7.128 12.827.952.272 1.911.402 2.855.402 4.514 0 8.669-2.972 9.971-7.53l11.147-39.04a10.382 10.382 0 0 0-4.729-11.8L71.83 130.633c.4-4.77 1.522-9.65 3.016-14.425-.182-.137-.375-.26-.553-.402-3.613-2.853-6.479-6.731-8.504-11.517-3.307-7.941-3.401-15.362-3.433-17.8 0-.478.01-.78.013-.912.202-5.02 4.238-8.9 9.19-8.9a9.132 9.132 0 0 1 6.766 2.961 9.143 9.143 0 0 1 2.429 6.608v.215c-.002.169-.016 3.784.943 7.526.229.927.517 1.808.842 2.633a536.76 536.76 0 0 0 1.73-3.979c4.063-7.455 2.591-17.417-4.6-20.329-1.427-.577-3.032-.956-4.735-1.124a63.633 63.633 0 0 0-9.696-.733c-6.795.015-15.731 1.03-24.343 5.638-8.62 4.553-16.586 13.12-20.29 26.265a7 7 0 1 0 13.456 3.87c2.902-9.83 7.818-14.684 13.466-17.806a28.541 28.541 0 0 1 3.993-1.758c-7.114 12.64-9.893 22.486-10.923 38.558.089 4.244 1.133 7.416 2.774 9.815a10.321 10.321 0 0 0 4.58 5.652v-.002l.014.008 2.16 16.012-28.213 6.017c-5.537 1.181-9.066 6.628-7.887 12.165 1.029 4.815 5.283 8.114 10.016 8.114.709 0 1.428-.075 2.15-.228l37.5-8c5.23-1.117 8.733-6.094 8.018-11.394l-1.283-9.516 8.42 4.937-8.939 31.306z"/><path d="M78.554 86.46c0-.138 0-.235.003-.286v-.017a7 7 0 0 0-13.99-.561c-.002.085-.012.384-.012.864.03 2.44.155 9.518 3.258 16.97 1.572 3.711 3.99 7.607 7.853 10.66 3.8 3.039 9.02 4.957 14.917 4.957l.169-.001c4.411-.002 9.2-.953 14.484-2.894a7.002 7.002 0 0 0 4.156-8.984 7.001 7.001 0 0 0-8.986-4.155c-4.097 1.507-7.286 2.036-9.654 2.032-3.224-.036-4.937-.828-6.423-1.953-2.185-1.656-3.88-4.98-4.763-8.559-.905-3.525-1.02-6.997-1.012-8.073zM170.563 77.594l.172.087.048.02.08.042a9.124 9.124 0 0 1 4.493 5.42 9.147 9.147 0 0 1-.654 7.01 9.186 9.186 0 0 1-8.14 4.905 9.219 9.219 0 0 1-4.292-1.067l-.108-.051a22.25 22.25 0 0 0-.88-.408c-.744-.326-1.949-.82-3.457-1.318-2.16-.718-6.464-1.916-11.072-1.916-.777 0-1.526.04-2.26.1-5.63 10.94-7.967 20.352-8.892 34.804.087 4.244 1.133 7.418 2.775 9.817a10.33 10.33 0 0 0 4.578 5.65v-.002l.014.008 2.16 16.012-28.211 6.017c-5.537 1.181-9.068 6.628-7.887 12.165 1.027 4.815 5.28 8.114 10.014 8.114.709 0 1.428-.075 2.15-.228l37.498-8c5.235-1.117 8.737-6.094 8.022-11.394l-1.283-9.515 8.418 4.936-8.938 31.306c-1.575 5.51 1.617 11.254 7.127 12.827a10.41 10.41 0 0 0 2.856.402c4.516 0 8.67-2.972 9.97-7.53l11.149-39.04a10.38 10.38 0 0 0-4.73-11.8l-24.45-14.334c1.008-11.996 6.639-24.708 10.955-34.573l25.477 31.123a6.984 6.984 0 0 0 5.42 2.567 7.002 7.002 0 0 0 5.414-11.434l-35.334-43.167a6.99 6.99 0 0 0-2.1-1.73 9.973 9.973 0 0 0-1.992-1.107c-4.415-1.786-10.494-1.754-16.08 1.036 5.265 1.229 9.428 2.992 11.97 4.246zM180.375 70.01c11.37 2.028 22.227-5.546 24.256-16.913 2.028-11.369-5.542-22.23-16.912-24.257-11.369-2.03-22.228 5.543-24.257 16.913-2.03 11.366 5.544 22.228 16.913 24.257zM235.88 54.836c11.37 2.028 22.227-5.546 24.256-16.912 2.028-11.37-5.542-22.23-16.912-24.258-11.369-2.03-22.228 5.543-24.257 16.913-2.03 11.366 5.544 22.228 16.913 24.257zM104.967 33.245c-2.03 11.366 5.544 22.228 16.913 24.257 11.37 2.028 22.227-5.546 24.256-16.912 2.028-11.37-5.542-22.23-16.912-24.258-11.369-2.03-22.228 5.543-24.257 16.913z"/><path d="M113.25 93.987A7.002 7.002 0 0 0 119.3 104.5a6.993 6.993 0 0 0 6.06-3.489c3.18-5.443 6.66-8.464 10.212-10.339 3.555-1.856 7.348-2.554 11.13-2.556 4.4-.008 8.696.994 11.812 2.027a42.081 42.081 0 0 1 3.657 1.395c.42.186.735.334.927.428l.197.097.004.002a7 7 0 0 0 6.539-12.379c-.54-.23-10.25-5.501-23.137-5.571-5.502-.003-11.662 1.039-17.611 4.149-5.952 3.09-11.53 8.26-15.838 15.722zM448.09 58.519h74.334v3.332H448.09zM463.691 65.519h38.543v3.332h-38.543zM463.691 51.519h38.543v3.332h-38.543zM62.803 16.876S60.723-2.87 51.866.356c-8.856 3.228 4.615 9.832 10.937 16.52zM107.988 14.878S99.913-3.26 92.484 2.543c-7.425 5.805 7.427 7.926 15.504 12.335zM22.906 8.137c-6.582 6.747 8.421 6.86 17.016 10.148 0 0-10.432-16.894-17.016-10.148zM18.92 34.502c-2.362 7.235 8.547 1.965 15.947 1.28 0 0-13.585-8.515-15.947-1.28zM164.331 20.22s-.599-19.845-9.673-17.29c-9.072 2.556 3.868 10.149 9.673 17.29zM277.406 5.12c-8.98 2.87 4.216 10.012 10.265 16.947 0 0-1.284-19.812-10.265-16.946zM309.5 138.752h208v4h-208zM592.5 138.752h31v4h-31zM0 138.752h31v4H0z"/></svg>