<svg xmlns="http://www.w3.org/2000/svg" viewBox="0 0 512 512"><g fill="#fff9d9"><path d="M492.462 100.446H433.61c-2.504-6.161-8.546-10.521-15.594-10.521h-63.522c-7.049 0-13.091 4.359-15.594 10.521H173.101c-2.503-6.161-8.545-10.521-15.593-10.521H93.984c-7.049 0-13.091 4.359-15.594 10.521H14.681C6.586 100.446 0 107.032 0 115.127v9.714c0 8.095 6.586 14.681 14.681 14.681H78.39c2.503 6.161 8.545 10.521 15.594 10.521h23.245v113.085c-40.41 3.8-72.141 37.904-72.141 79.291 0 43.922 35.734 79.656 79.656 79.656 43.922 0 79.656-35.734 79.656-79.656 0-41.387-31.731-75.49-72.141-79.291V150.043h25.249c7.049 0 13.091-4.359 15.593-10.521h165.798c2.504 6.161 8.546 10.521 15.594 10.521h25.248v113.085c-40.41 3.8-72.141 37.904-72.141 79.291 0 43.922 35.733 79.656 79.656 79.656s79.656-35.734 79.656-79.656c0-41.387-31.731-75.49-72.141-79.291V150.043h23.244c7.049 0 13.091-4.359 15.594-10.521h58.852c10.773 0 19.538-8.765 19.538-19.538.001-10.773-8.764-19.538-19.537-19.538zM77.151 124.493H15.029v-9.018H77.15v9.018zM189.37 342.419c0 35.635-28.992 64.626-64.626 64.626-35.635 0-64.626-28.992-64.626-64.626 0-35.635 28.992-64.626 64.626-64.626s64.626 28.991 64.626 64.626zM159.311 133.21c0 .995-.81 1.804-1.804 1.804H93.984c-.995 0-1.804-.81-1.804-1.804v-26.452c0-.995.81-1.804 1.804-1.804h63.524c.995 0 1.804.81 1.804 1.804v26.452zm178.348-8.717H174.341v-9.018H337.66v9.018zm114.224 217.926c0 35.635-28.992 64.626-64.626 64.626s-64.626-28.992-64.626-64.626c0-35.635 28.992-64.626 64.626-64.626s64.626 28.991 64.626 64.626zM419.82 133.21c0 .995-.81 1.804-1.805 1.804h-63.522c-.995 0-1.805-.81-1.805-1.804v-26.452c0-.995.81-1.804 1.805-1.804h63.522c.995 0 1.805.81 1.805 1.804v26.452zm72.642-8.717h-57.613v-9.018h57.613a4.514 4.514 0 0 1 4.509 4.509 4.514 4.514 0 0 1-4.509 4.509z"/><path d="M75.147 342.419c0 27.347 22.249 49.597 49.597 49.597s49.597-22.249 49.597-49.597-22.249-49.597-49.597-49.597-49.597 22.249-49.597 49.597zm84.164 0c0 19.06-15.507 34.568-34.568 34.568-19.06 0-34.568-15.507-34.568-34.568s15.507-34.568 34.568-34.568 34.568 15.508 34.568 34.568zm186.669-27.447c-3.311 4.967.313 11.626 6.282 11.626h.012c2.516 0 4.849-1.272 6.249-3.362 6.691-9.993 18.443-16.323 31.564-15.272 17.399 1.393 31.166 15.891 31.719 33.337.62 19.568-15.119 35.685-34.549 35.685-11.175 0-21.126-5.332-27.449-13.585a7.488 7.488 0 0 0-5.946-2.936c-6.215 0-9.754 7.133-5.974 12.067 9.069 11.835 23.339 19.483 39.368 19.483 28.012 0 50.675-23.343 49.557-51.599-1.005-25.432-21.547-46.228-46.967-47.529-18.263-.933-34.527 8.078-43.866 22.085z"/></g></svg>